<svg viewBox="0 0 1e3 315" xmlns="http://www.w3.org/2000/svg"><path d="M50 234c-14 5-29 7-43 7-9 0-9-14 0-14 10 0 19-1 29-3a96 96 0 0 1-35-61c-5-36 33-57 55-27 26-31 61-7 55 27-4 29-24 50-45 64 15 7 33 12 55 12 30 0 83-12 110-86 17-47 8-105-50-131-33-16-71-6-93 11-22 16-32 46-3 58 20 7 48-2 78-26 4-2 9-1 12 3 3 5 2 14-25 83l-28 70c-1 2-4 3-7 3h-2c-4-2-5-6-4-9 21-49 42-103 49-128-39 26-65 22-78 17-40-18-28-62 0-83C105 2 148-8 187 9c65 29 75 97 57 149-21 60-66 95-123 95-29 0-52-8-71-19Zm-1-82c-9-28-38-18-34 9 3 21 15 43 36 58 24-13 42-33 46-58 6-30-27-34-34-9 0 4-3 8-7 8-4-1-7-4-7-8Zm206 44c-1-22 17-52 37-63 20-12 46-7 56 13 3 4-1 10-6 10 2 2 3 6 1 8-9 15-35 69-22 74 17 6 51-43 68-78 5-9 15-2 12 5-15 28-49 96-84 86-19-6-13-33-9-45-9 9-20 15-30 15-14 0-23-13-23-25Zm14-1c2 36 47-14 61-35 3-4 5-6 7-6-10-15-24-17-38-9s-31 34-30 50Zm152-85c-18 52-48 121-32 129 11 2 26-6 62-78 5-9 16-2 12 6-35 68-52 86-70 86-8 0-15-3-18-10-10-18 4-61 32-133h-17c-10 0-9-14 0-14h22c4-12 7-21 6-24-2-10 12-11 14-3 1 5-1 13-6 27h21c9 0 8 14 0 14Zm46 20c4-8 16-1 12 7-14 23-47 98-20 100 24 3 54-59 65-76 5-8 15-2 11 6-12 25-44 89-78 84-54-7 5-113 10-121Zm19-19c-4 0-8-4-8-7 0-5 4-8 8-8a7 7 0 1 1 0 15Zm91 73c3-6 23-40 13-43-17-3-55 45-77 80-5 7-15 1-12-7 0 0 16-37 32-82 3-8 16-4 13 5l-11 29c19-22 40-41 57-38 30 5 4 50-3 63-5 10-26 45-11 48 21 3 58-47 76-79 5-8 16-1 12 7-5 8-52 91-90 86-35-4-6-54 1-69Zm40 113c-5-16 6-42 44-60l40-20 7-20c-13 14-30 29-48 22-9-4-15-12-15-23-1-22 17-52 37-63s45-8 56 13c2 4-1 10-5 10 2 3 2 5 1 8l-14 43c22-13 43-28 60-48 6-8 16 1 10 8-23 27-49 45-78 60-13 32-33 88-69 88-13 0-23-7-26-18Zm50-48c-32 16-40 36-37 44 3 9 13 8 17 7 7 0 23-9 46-64Zm-1-42c12 5 41-27 56-50l5-3c-4-7-9-11-14-13-27-8-55 31-54 54 0 8 4 10 7 12Zm107-37c9-22 41-61 65-36 10 11 12 31-10 53a33 33 0 0 1-47-1c-4 13-13 45 4 51 26 11 73-38 90-75 4-8 15-3 11 6-16 34-65 98-106 82-31-11-15-59-7-80Zm45 7c15-15 16-28 10-34-6-5-13-5-22 3-8 8-13 16-18 26 8 11 21 15 30 5Zm101 20c10-17 21-34 14-45-7-12-63 7-81-9-23-20 3-54 30-45 16 4 24 21 19 36 18-2 36-3 44 11 11 18-3 40-14 59-12 20-17 29-11 33 18 12 59-57 68-76 4-8 15-2 11 6-12 23-54 104-86 82-19-12-6-34 6-52Zm-58-64c5 4 15 4 25 3 5-12 0-26-13-26-12 0-22 14-12 23Z" fill="#da1b6e"/></svg>